<svg xmlns="http://www.w3.org/2000/svg" viewBox="0 0 499.54 118.62"><defs><style>.cls-1{fill:#8aabff;}.cls-1,.cls-10,.cls-2,.cls-3,.cls-4,.cls-5,.cls-6,.cls-8,.cls-9{stroke:#000;}.cls-1,.cls-10,.cls-2,.cls-3,.cls-4,.cls-5,.cls-6,.cls-7,.cls-8,.cls-9{stroke-miterlimit:10;}.cls-1,.cls-10,.cls-2,.cls-3,.cls-4,.cls-5,.cls-6,.cls-7{stroke-width:4px;}.cls-2{fill:#ff87b6;}.cls-3{fill:#50d26e;}.cls-4{fill:#fcffa9;}.cls-5{fill:#dbaff2;}.cls-6{fill:#dc352c;}.cls-7{fill:#ff6a62;stroke:#1a1a1a;}.cls-8{fill:none;}.cls-8,.cls-9{stroke-width:3px;}</style></defs><g id="Ebene_2" data-name="Ebene 2"><g id="Ebene_1-2" data-name="Ebene 1"><text/><path class="cls-1" d="M124.08,28.34c1.8-3.8,3.8-4.4,6.6-4.4h1.5c3.4,0,6.1,3.1,6.5,6.5l6.9,56.1c.4,3.5-2.9,7-6.7,7.31a7.23,7.23,0,0,1-7.8-6.2L126.88,52l-13.7,28.3c-1.3,2.8-3.8,6.11-8.1,6.11s-6.7-3.31-8-6.11L83.28,52l-4.2,35.61a7.23,7.23,0,0,1-7.8,6.2c-3.8-.3-7.2-3.81-6.7-7.31l6.9-56.1c.4-3.4,3.1-6.5,6.5-6.5h1.5c2.8,0,4.9.6,6.6,4.4l19,40.5Z"/><path class="cls-2" d="M153.88,69.84c0-14.7,10.9-24.1,24.5-24.1s24.6,9.4,24.6,24.1-11,24.41-24.6,24.41S153.88,84.54,153.88,69.84Zm35.1,0a10.55,10.55,0,1,0-21.1,0,10.56,10.56,0,1,0,21.1,0Z"/><path class="cls-3" d="M210.17,69.84c0-14.7,10.91-24.1,24.51-24.1s24.6,9.4,24.6,24.1-11,24.41-24.6,24.41S210.17,84.54,210.17,69.84Zm35.11,0a10.55,10.55,0,1,0-21.1,0,10.56,10.56,0,1,0,21.1,0Z"/><path class="cls-4" d="M269.17,77.34a6.29,6.29,0,0,1,7.5,1.7,11.76,11.76,0,0,0,8.81,4.1c3.09,0,6-.5,6-2.9,0-2-1.21-2.7-4.61-3.8l-5.3-1.9c-14-4.7-13.9-11.3-13.9-15.6,0-6.9,8.3-13.3,18.1-13.3,6.71,0,13.61,2.1,16.81,7.7,1.7,3,.9,5.9-1.2,7.1-3.1,1.8-6,1.1-8.9-1.1a9.12,9.12,0,0,0-5.61-2.1c-3,0-5.1,1-5.1,2.8,0,1.5,1.2,2.4,4,3.3l7.11,2.4c11.3,3.7,12.7,11,12.7,14,0,9.91-10.4,14.61-20.21,14.61-7.5,0-16.3-3.1-18.7-10C265.67,81.44,266.87,78.34,269.17,77.34Z"/><path class="cls-5" d="M321.77,21.24a8.16,8.16,0,1,1,0,16.3,8.48,8.48,0,0,1-8.7-8.2C313.07,24.74,317.07,21.24,321.77,21.24Zm7,66.41c0,3.5-3.2,6.2-7,6.2s-6.9-2.81-7-6.2V52.34c.1-3.4,3.3-6.2,7-6.2s7,2.7,7,6.2Z"/><path class="cls-6" d="M364,46.64a5.27,5.27,0,0,1,5,5.5,5.4,5.4,0,0,1-5,5.5h-4.8v30c0,3.5-3.2,6.2-7,6.2s-6.9-2.81-7-6.2v-30h-4.4a5.4,5.4,0,0,1-5-5.5,5.27,5.27,0,0,1,5-5.5h4.4v-3.2c0-14.3,7.1-22.2,20.5-22.2h1.2a6.38,6.38,0,0,1,6.4,6.4,6.58,6.58,0,0,1-6.4,6.4h-1.2c-4.8,0-6.5,3.4-6.5,8.9v3.7Z"/><path class="cls-7" d="M391.87,112.45c-1.3,3.1-4.5,4.9-8.8,3.9-3.4-.8-5.4-4.8-4-8.4l7.8-19.41-14.5-33.8a6.29,6.29,0,0,1,4.1-8.3c4.4-1.1,7.6.9,8.7,4l8.8,22.8,9-22.8c1.1-3.1,4.3-5.1,8.7-4a6.29,6.29,0,0,1,4.1,8.3Z"/><polyline class="cls-8" points="463.95 70.09 463.95 37.77 491.43 32.92 491.43 65.24"/><ellipse cx="457.2" cy="70.09" rx="7.97" ry="5.66"/><ellipse cx="485.07" cy="65.75" rx="7.57" ry="6.17"/><path class="cls-9" d="M464,36.48v-2a1.43,1.43,0,0,1,1.18-1.4l24.63-4.34a1.42,1.42,0,0,1,1.67,1.4v2a1.43,1.43,0,0,1-1.18,1.4l-24.63,4.35A1.43,1.43,0,0,1,464,36.48Z"/><line class="cls-10" x1="19.84" y1="0.01" x2="19.84" y2="46.24"/><ellipse cx="10.56" cy="49.25" rx="11.28" ry="8.01" transform="translate(-23.21 11.88) rotate(-30)"/><path d="M20.86,2.42c.59,3.18-.31,3.92.08,5.26s1.85,2.05,3.44,3.9c1.93,2.24,2.66,2.32,4.93,4.93a14.87,14.87,0,0,1,2.12,2.82,12.2,12.2,0,0,1,1.4,4.93c.44,5.29-3.06,9.37-2.81,9.51s3.91-3.54,4.52-9a14.53,14.53,0,0,0-.7-6.28c-.74-2-1.42-2.31-5.58-7.67-2.08-2.68-3.13-4-4.18-5.57C22.15,2.4,22-.15,21.64,0H19.55C20.29,0,20.76,1.91,20.86,2.42Z"/><text/></g></g></svg>